<?xml version="1.0" encoding="utf-8"?>
<!-- Generator: Adobe Illustrator 25.0.1, SVG Export Plug-In . SVG Version: 6.00 Build 0)  -->
<svg version="1.1" id="Capa_1" xmlns="http://www.w3.org/2000/svg" xmlns:xlink="http://www.w3.org/1999/xlink" x="0px" y="0px"
	 width="210px" height="50px" viewBox="0 0 210 50" style="enable-background:new 0 0 210 50;" xml:space="preserve">
<style type="text/css">
	.st0{fill:#EC1C24;}
</style>
<g>
	<g>
		<polygon class="st0" points="159.6,16.5 160.1,18.3 163.6,16.9 163.6,28.4 203.5,28.4 203.5,17.2 208.3,18.3 208.6,16.4 
			180.2,8.2 		"/>
		<polygon class="st0" points="173.3,11.7 173.3,9.8 174.3,9.8 173.2,6.5 169.8,6.5 168.6,9.6 169.6,9.6 169.6,13.4 		"/>
	</g>
	<g>
		<g>
			<g>
				<path class="st0" d="M1.3,23.3h1.1c0.5,0,1.1-0.7,1.1-1.1V6.6c0-0.4-0.6-1.1-1.1-1.1H1.3V0.4h23.4v9.5h-5.4l-0.8-4h-5.7v6.2h6.3
					v5.7h-6.3v5.4h2.9v4.9H1.3V23.3z"/>
				<path class="st0" d="M32.4,19.5c0.3,2.7,1.3,3.8,3.7,3.8c2.1,0,3.2-0.8,4-1.8h4.6v5c-1.9,1.1-4.7,1.9-9.5,1.9
					c-8.2,0-11.5-4.1-11.5-10.7c0-6.7,4.3-11,11.3-11c7.1,0,10.4,3.3,10.4,10.7c0,1-0.1,1.8-0.1,2.1H32.4z M32.4,15.4h5
					c-0.2-2.7-0.9-3.7-2.4-3.7C33.5,11.8,32.7,12.7,32.4,15.4z"/>
				<path class="st0" d="M46.8,23.3h1c0.4,0,1-0.6,1-1v-8.9c0-0.4-0.6-1-1-1h-1.1V7.2h9.1c0.8,0,1.3,0.6,1.5,2.9
					C58.6,8.3,60.1,7,62.7,7c0.4,0,0.7,0,1.3,0.2v6.4h-0.9c-2.7,0-4.5,0.3-5.7,0.6v9h2.2v4.9H46.8V23.3z"/>
				<path class="st0" d="M65.6,23.3h1c0.4,0,1-0.6,1-1v-8.9c0-0.4-0.6-1-1-1h-1.1V7.2h9.1c0.8,0,1.3,0.6,1.5,2.9
					C77.4,8.3,78.9,7,81.5,7c0.4,0,0.7,0,1.3,0.2v6.4h-0.9c-2.7,0-4.5,0.3-5.7,0.6v9h2.2v4.9H65.6V23.3z"/>
				<path class="st0" d="M92.5,19.5c0.3,2.7,1.3,3.8,3.7,3.8c2.1,0,3.2-0.8,4-1.8h4.6v5c-1.9,1.1-4.7,1.9-9.5,1.9
					c-8.2,0-11.5-4.1-11.5-10.7c0-6.7,4.3-11,11.3-11c7.1,0,10.4,3.3,10.4,10.7c0,1-0.1,1.8-0.1,2.1H92.5z M92.6,15.4h5
					c-0.2-2.7-0.9-3.7-2.4-3.7C93.6,11.8,92.8,12.7,92.6,15.4z"/>
				<path class="st0" d="M107,23.3h1c0.4,0,1-0.6,1-1v-8.9c0-0.4-0.6-1-1-1h-1.1V7.2h9.1c0.8,0,1.3,0.6,1.5,2.9
					c1.3-1.8,2.7-3.1,5.4-3.1c0.4,0,0.7,0,1.3,0.2v6.4h-0.9c-2.7,0-4.5,0.3-5.7,0.6v9h2.2v4.9H107V23.3z"/>
				<path class="st0" d="M125.2,17.8c0-6.7,4.9-11,11.8-11c6.8,0,11.7,4.3,11.7,11c0,6.7-4.9,10.7-11.7,10.7
					C130.1,28.5,125.2,24.4,125.2,17.8z M140,17.8c0-3.8-1.2-5.4-3-5.4c-1.8,0-3,1.6-3,5.4c0,3.8,1.2,5.5,3,5.5
					C138.8,23.3,140,21.6,140,17.8z"/>
			</g>
		</g>
		<g>
			<g>
				<path class="st0" d="M10.1,42.4h-5l-0.5,1.4c-0.3,0.9-0.2,1.5,0.6,1.5h0.9v1.2H1.5v-1.2H2c0.4,0,0.6-0.3,0.8-0.6l3.3-9.2
					c0.1-0.4-0.1-0.6-0.4-0.6h-1v-1.2h4.6l3.7,11c0.1,0.3,0.4,0.6,0.7,0.6h0.5v1.2h-5v-1.2h1.8L10.1,42.4z M5.6,41.1h4.1l-2-5.9H7.7
					L5.6,41.1z"/>
				<path class="st0" d="M14.8,47.3c0-1.1,0.8-1.7,1.7-2.2c-0.4-0.2-0.7-0.7-0.7-1.3c0-0.8,0.4-1.3,1-1.8c-0.7-0.5-1.1-1.3-1.1-2.3
					c0-1.8,1.4-3.1,3.7-3.1c0.4,0,0.8,0,1.2,0.1h3.3v1.2h-0.8c-0.2,0-0.4,0.1-0.4,0.3c0.3,0.4,0.4,0.9,0.4,1.4c0,1.8-1.4,3-3.7,3
					c-0.7,0-1.3-0.1-1.8-0.3c-0.2,0.2-0.3,0.5-0.3,0.8c0,0.5,0.3,0.7,0.9,0.7h2.7c1.9,0,2.9,0.7,2.9,2.4c0,1.9-1.3,3.3-4.8,3.3
					C15.9,49.6,14.8,48.6,14.8,47.3z M21.8,46.7c0-0.7-0.4-1.1-1.5-1.1h-3.1c-0.4,0.3-0.6,0.7-0.6,1.2c0,0.9,0.5,1.4,2.3,1.4
					C20.9,48.3,21.8,47.6,21.8,46.7z M21.1,39.8c0-1.1-0.7-1.8-1.8-1.8c-1.2,0-1.8,0.7-1.8,1.8c0,1.1,0.7,1.8,1.8,1.8
					C20.4,41.6,21.1,40.9,21.1,39.8z"/>
				<path class="st0" d="M24.3,41.7c0-3,1.9-4.9,4.7-4.9c2.7,0,4.2,1.4,4.2,4.6c0,0.3,0,0.5,0,0.6h-6.8c0.1,2.2,1,3.3,2.9,3.3
					c1.4,0,2-0.5,2.5-1.1h1.1v1.4c-0.7,0.5-1.8,1-3.7,1C25.9,46.5,24.3,44.7,24.3,41.7z M31.2,40.8c-0.1-2-0.9-2.8-2.2-2.8
					c-1.4,0-2.4,0.9-2.6,2.8H31.2z"/>
				<path class="st0" d="M34.2,45.2h0.7c0.2,0,0.5-0.3,0.5-0.5v-6.2c0-0.2-0.3-0.5-0.5-0.5h-0.8v-1.2h2.8c0.3,0,0.5,0.3,0.5,1.2v0.3
					c0.9-0.9,2.3-1.5,3.8-1.5c1.4,0,2.5,0.5,2.5,2.4v5.6c0,0.3,0.3,0.5,0.5,0.5h0.6v1.2h-4.4v-1.2h1.3v-5.5c0-1.2-0.5-1.5-1.5-1.5
					c-1,0-2,0.4-2.8,0.9v6h1.3v1.2h-4.5V45.2z"/>
				<path class="st0" d="M45.6,41.7c0-3.1,2-4.9,4.9-4.9c1.6,0,2.6,0.2,3.2,0.5v2h-1.3c-0.2-0.9-0.8-1.2-2-1.2
					c-1.8,0-2.8,1.2-2.8,3.7c0,2.4,0.9,3.6,2.8,3.6c1.3,0,2-0.6,2.3-1.1h1v1.4c-0.6,0.5-1.7,1-3.4,1C47.2,46.5,45.6,44.7,45.6,41.7z
					"/>
				<path class="st0" d="M55.1,45.2h0.7c0.2,0,0.5-0.3,0.5-0.5v-6.2c0-0.2-0.2-0.5-0.5-0.5H55v-1.2h2.9c0.3,0,0.4,0.2,0.4,0.8v7.1
					c0,0.3,0.3,0.5,0.5,0.5h0.7v1.2h-4.4V45.2z M56.1,34.7c0-0.6,0.5-1.1,1.1-1.1c0.6,0,1.1,0.5,1.1,1.1c0,0.6-0.5,1.1-1.1,1.1
					C56.6,35.8,56.1,35.4,56.1,34.7z"/>
				<path class="st0" d="M60.4,43.7c0-2,1.6-2.9,3.8-2.9c0.9,0,1.5,0.1,2.2,0.3v-1.3c0-1.2-0.7-1.7-1.9-1.7c-1.3,0-2,0.4-2.5,0.9H61
					v-1.5c0.8-0.4,2-0.8,3.7-0.8c2.2,0,3.6,0.7,3.6,2.8v5.1c0,0.4,0.2,0.6,0.6,0.6h0.5v1c-0.3,0.2-0.7,0.3-1.3,0.3
					c-1,0-1.6-0.4-1.7-1.3c-0.7,0.9-1.6,1.3-2.9,1.3C61.7,46.5,60.4,45.6,60.4,43.7z M66.4,44.2v-2.1c-0.5-0.1-1.2-0.2-1.8-0.2
					c-1.4,0-2.2,0.5-2.2,1.7c0,1.2,0.7,1.6,1.8,1.6C65.1,45.3,65.8,44.8,66.4,44.2z"/>
				<path class="st0" d="M73.9,41.7c0-3.7,2.3-5,4.2-5c1.4,0,2.3,0.5,2.9,1.1v-3h-1.4v-1.2h3c0.3,0,0.4,0.2,0.4,0.5v10.6
					c0,0.2,0.3,0.5,0.5,0.5h0.7v1.2h-2.8c-0.2,0-0.4-0.3-0.4-1.3c-0.7,0.8-1.7,1.4-3.2,1.4C75.9,46.5,73.9,45.4,73.9,41.7z M81,44
					v-5.1c-0.6-0.5-1.3-0.8-2.3-0.8c-1.4,0-2.8,0.8-2.8,3.6c0,2.9,1.3,3.6,2.5,3.6C79.6,45.3,80.3,44.7,81,44z"/>
				<path class="st0" d="M85,41.7c0-3,1.9-4.9,4.7-4.9c2.7,0,4.2,1.4,4.2,4.6c0,0.3,0,0.5,0,0.6H87c0.1,2.2,1,3.3,2.9,3.3
					c1.4,0,2-0.5,2.5-1.1h1.1v1.4c-0.7,0.5-1.8,1-3.7,1C86.6,46.5,85,44.7,85,41.7z M91.9,40.8c-0.1-2-0.9-2.8-2.2-2.8
					c-1.4,0-2.4,0.9-2.6,2.8H91.9z"/>
				<path class="st0" d="M98.3,45.2h0.8c0.3,0,0.6-0.3,0.6-0.6v-9.2c0-0.3-0.3-0.6-0.6-0.6h-0.8v-1.2h5.2c3,0,4.9,1.1,4.9,3.9
					c0,2.8-1.9,3.9-4.9,3.9h-1.7v3.8h1.6v1.2h-5.1V45.2z M103.5,40.1c2,0,2.8-0.9,2.8-2.6c0-1.7-0.8-2.6-2.8-2.6h-1.7v5.2H103.5z"/>
				<path class="st0" d="M109.5,45.2h0.7c0.2,0,0.5-0.3,0.5-0.5v-6.2c0-0.2-0.3-0.5-0.5-0.5h-0.8v-1.2h2.8c0.3,0,0.5,0.2,0.5,1.3
					v0.3c0.7-0.9,1.5-1.7,2.8-1.7c0.2,0,0.4,0,0.5,0.1v1.6h-0.4c-1.5,0-2.3,0.3-3,1v5.8h1.5v1.2h-4.7V45.2z"/>
				<path class="st0" d="M116.6,41.7c0-3.1,2.1-4.9,4.9-4.9c2.8,0,4.9,1.9,4.9,4.9c0,3-2.1,4.9-4.9,4.9
					C118.7,46.5,116.6,44.7,116.6,41.7z M124.3,41.7c0-2.4-1.2-3.6-2.8-3.6s-2.8,1.2-2.8,3.6c0,2.3,1.2,3.6,2.8,3.6
					S124.3,44,124.3,41.7z"/>
				<path class="st0" d="M127.1,48.3h0.7c0.2,0,0.5-0.3,0.5-0.5v-9.2c0-0.2-0.3-0.5-0.5-0.5h-0.8v-1.2h2.8c0.3,0,0.4,0.2,0.4,1.1
					v0.2c0.7-0.7,1.8-1.5,3.2-1.5c1.8,0,3.7,1.2,3.7,4.7c0,3.6-2.1,4.8-4.2,4.8c-1.3,0-2.1-0.3-2.7-0.9v2.8h1.4v1.1h-4.6V48.3z
					 M135.2,41.6c0-2.8-1.2-3.5-2.5-3.5c-0.9,0-1.7,0.5-2.3,1v5.1c0.5,0.5,1.2,0.9,2.2,0.9C133.8,45.1,135.2,44.5,135.2,41.6z"/>
				<path class="st0" d="M138.2,45.2h0.7c0.2,0,0.5-0.3,0.5-0.5v-6.2c0-0.2-0.2-0.5-0.5-0.5h-0.8v-1.2h2.9c0.3,0,0.4,0.2,0.4,0.8
					v7.1c0,0.3,0.3,0.5,0.5,0.5h0.7v1.2h-4.4V45.2z M139.2,34.7c0-0.6,0.5-1.1,1.1-1.1c0.6,0,1.1,0.5,1.1,1.1c0,0.6-0.5,1.1-1.1,1.1
					C139.7,35.8,139.2,35.4,139.2,34.7z"/>
				<path class="st0" d="M143.5,41.7c0-3,1.9-4.9,4.7-4.9c2.7,0,4.2,1.4,4.2,4.6c0,0.3,0,0.5,0,0.6h-6.8c0.1,2.2,1,3.3,2.9,3.3
					c1.4,0,2-0.5,2.5-1.1h1.1v1.4c-0.7,0.5-1.8,1-3.7,1C145.1,46.5,143.5,44.7,143.5,41.7z M150.4,40.8c-0.1-2-0.9-2.8-2.2-2.8
					c-1.4,0-2.4,0.9-2.6,2.8H150.4z"/>
				<path class="st0" d="M153.5,41.7c0-3.7,2.3-5,4.2-5c1.4,0,2.3,0.5,2.9,1.1v-3h-1.4v-1.2h3c0.3,0,0.4,0.2,0.4,0.5v10.6
					c0,0.2,0.3,0.5,0.5,0.5h0.7v1.2H161c-0.2,0-0.4-0.3-0.4-1.3c-0.7,0.8-1.7,1.4-3.2,1.4C155.5,46.5,153.5,45.4,153.5,41.7z
					 M160.6,44v-5.1c-0.6-0.5-1.3-0.8-2.3-0.8c-1.4,0-2.8,0.8-2.8,3.6c0,2.9,1.3,3.6,2.5,3.6C159.2,45.3,160,44.7,160.6,44z"/>
				<path class="st0" d="M164.7,43.7c0-2,1.6-2.9,3.8-2.9c0.9,0,1.5,0.1,2.2,0.3v-1.3c0-1.2-0.7-1.7-1.9-1.7c-1.3,0-2,0.4-2.5,0.9
					h-0.9v-1.5c0.8-0.4,2-0.8,3.7-0.8c2.2,0,3.6,0.7,3.6,2.8v5.1c0,0.4,0.2,0.6,0.6,0.6h0.5v1c-0.3,0.2-0.7,0.3-1.3,0.3
					c-1,0-1.6-0.4-1.7-1.3c-0.7,0.9-1.6,1.3-2.9,1.3C166,46.5,164.7,45.6,164.7,43.7z M170.7,44.2v-2.1c-0.5-0.1-1.1-0.2-1.8-0.2
					c-1.4,0-2.2,0.5-2.2,1.7c0,1.2,0.7,1.6,1.8,1.6C169.5,45.3,170.1,44.8,170.7,44.2z"/>
				<path class="st0" d="M174.7,41.7c0-3.7,2.3-5,4.2-5c1.4,0,2.3,0.5,2.9,1.1v-3h-1.4v-1.2h3c0.3,0,0.4,0.2,0.4,0.5v10.6
					c0,0.2,0.3,0.5,0.5,0.5h0.7v1.2h-2.8c-0.2,0-0.4-0.3-0.4-1.3c-0.7,0.8-1.7,1.4-3.2,1.4C176.8,46.5,174.7,45.4,174.7,41.7z
					 M181.8,44v-5.1c-0.6-0.5-1.3-0.8-2.3-0.8c-1.4,0-2.8,0.8-2.8,3.6c0,2.9,1.3,3.6,2.5,3.6C180.4,45.3,181.2,44.7,181.8,44z"/>
				<path class="st0" d="M185.8,41.7c0-3,1.9-4.9,4.7-4.9c2.7,0,4.2,1.4,4.2,4.6c0,0.3,0,0.5,0,0.6h-6.8c0.1,2.2,1,3.3,2.9,3.3
					c1.4,0,2-0.5,2.5-1.1h1.1v1.4c-0.7,0.5-1.8,1-3.7,1C187.5,46.5,185.8,44.7,185.8,41.7z M192.7,40.8c-0.1-2-0.9-2.8-2.2-2.8
					c-1.4,0-2.4,0.9-2.6,2.8H192.7z"/>
				<path class="st0" d="M195.9,46v-2h1.2c0.2,0.9,0.8,1.3,2.1,1.3c1.3,0,2.1-0.5,2.1-1.5c0-0.9-0.7-1.1-2.3-1.4c-2-0.3-3-0.9-3-2.8
					c0-1.8,1.4-2.8,3.7-2.8c1.5,0,2.4,0.2,3.1,0.5v1.9h-1.2c-0.2-0.7-0.7-1.1-2.1-1.1c-1.2,0-1.9,0.5-1.9,1.3c0,0.8,0.5,1.1,2.2,1.4
					c2.2,0.3,3.2,0.9,3.2,2.8c0,1.8-1.3,3-3.9,3C197.5,46.5,196.6,46.3,195.9,46z"/>
			</g>
		</g>
	</g>
</g>
</svg>
